<?xml version="1.0" encoding="utf-8"?>
<svg id="Capa_1" data-name="Capa 1" viewBox="-0.8 -0.799 570.713 411.235" xmlns="http://www.w3.org/2000/svg">
  <defs>
    <style>.cls-1{fill:#e9505b;}.cls-2{fill:#1d1d1b;}</style>
  </defs>
  <path class="cls-1" d="M94.18,230.43a5.26,5.26,0,0,0-5.25-5.25H44.8a5.25,5.25,0,0,0,0,10.5H88.93A5.26,5.26,0,0,0,94.18,230.43Z" transform="translate(-39.55 -32.2)"/>
  <path class="cls-1" d="M608,347.44a68.59,68.59,0,0,0-68.59-68.59c-1.62,0-3.22.08-4.8.19l-35-75.86a19.75,19.75,0,0,0-3.77-5.46A11.22,11.22,0,0,0,486,191.8h-2.59a19.9,19.9,0,0,0-3.62,0h-19l-1.73-13.19a15.49,15.49,0,0,0-15.43-15.48H398.27c9.47-13.87,17.47-24.52,20.34-25.52.27,0,.53,0,.8,0h0a52.89,52.89,0,0,0,51.06-39.84h15.18a42.89,42.89,0,0,0-15.44-26.76,52.88,52.88,0,0,0-50.8-38.85h0A52.64,52.64,0,0,0,385.27,125c-68,1.24-105.86,30.49-116.88,40.54a15.51,15.51,0,0,0-7.25,13.09v1.11a15.5,15.5,0,0,0,15.43,15.48l15.55.06a311.74,311.74,0,0,0-33.55,53.07h-19a11,11,0,0,0,1.14-3.18l19.17-110.67c1-5.74-3.21-10.47-9.35-10.51l-104.89-.68c-6.14,0-12,4.63-13,10.37L113.49,244.33a9.21,9.21,0,0,0,.17,4H83.75a7,7,0,0,0-7,6.95V256a7,7,0,0,0,7,7h64.92l.3,0H450.26C401.83,224,353.4,233.34,353.4,233.34s10.74-17.62,23.58-37.76l21.47.08a11.15,11.15,0,0,0,8.39,18.56H462a19.28,19.28,0,0,0,1.62,5.54L486,268.25l-8.62,8.63H401a4.7,4.7,0,1,0,0,9.39h70.25a3.88,3.88,0,0,1,2.94,3.75v.48a3.83,3.83,0,0,1-1.29,2.86h-130a6.6,6.6,0,1,0,0,13.19H447.73l-.4.4h.51a4.44,4.44,0,0,1,4.42,4.43v.51a4.44,4.44,0,0,1-4.42,4.43h-3.67a6.41,6.41,0,0,0-1.46-.18H305.53a6.6,6.6,0,0,0,0,13.19H435.34a6.47,6.47,0,0,1,2.57,5.14v.07a6.49,6.49,0,0,1-6.48,6.48l-154.76-1.4a7.49,7.49,0,0,0-7.47,7.47v2a7.49,7.49,0,0,0,7.47,7.47H412.1a7.45,7.45,0,0,0,2.41-.43,4.39,4.39,0,0,1,3.16,4.2v.53a4.42,4.42,0,0,1-2.13,3.75H257.17a70.7,70.7,0,0,1-3.42,12.85A80.05,80.05,0,0,1,249,388h59.89l-.33.33H448c-5.09,27.78,12.17,49.48,42.19,50.29,33.61.89,70.47-24.73,82.34-57.23,4.06-11.13,4.66-21.62,2.35-30.65h32.9C607.87,349.64,608,348.56,608,347.44Zm-75.31,32.89c-4.08,11.19-16.78,20-28.38,19.72s-17.66-9.65-13.59-20.86,16.81-20,28.4-19.72S536.78,369.12,532.68,380.33Z" transform="translate(-39.55 -32.2)"/>
  <path class="cls-1" d="M540.72,257.75a18.93,18.93,0,0,0,3.3-.34V215.88a18.93,18.93,0,0,0-3.3-.34,19.85,19.85,0,0,0-19.79,19.79V238A19.85,19.85,0,0,0,540.72,257.75Z" transform="translate(-39.55 -32.2)"/>
  <path class="cls-1" d="M318.13,306.55a6.45,6.45,0,0,0,6.44-6.43h0a6.46,6.46,0,0,0-6.44-6.43h-48a6.45,6.45,0,0,0-6.43,6.43h0a6.44,6.44,0,0,0,6.43,6.43Z" transform="translate(-39.55 -32.2)"/>
  <path class="cls-1" d="M370.57,283.31a4,4,0,0,0,0-7.92H350.29a4,4,0,0,0,0,7.92Z" transform="translate(-39.55 -32.2)"/>
  <path class="cls-1" d="M84.34,201h20.28a4,4,0,1,0,0-7.91H84.34a4,4,0,1,0,0,7.91Z" transform="translate(-39.55 -32.2)"/>
  <path class="cls-1" d="M126.54,351.12a4,4,0,0,0-4-4H102.3a4,4,0,0,0,0,7.92h20.28A4,4,0,0,0,126.54,351.12Z" transform="translate(-39.55 -32.2)"/>
  <path class="cls-1" d="M277.75,129.76H323.1a4.92,4.92,0,0,0,0-9.84H277.75a4.92,4.92,0,0,0,0,9.84Z" transform="translate(-39.55 -32.2)"/>
  <path class="cls-1" d="M242.46,305.56a4.95,4.95,0,0,0,0-9.89H198.93a4.95,4.95,0,1,0,0,9.89Z" transform="translate(-39.55 -32.2)"/>
  <path class="cls-1" d="M137.47,332.56a5,5,0,0,0-4.95-4.95H89a5,5,0,0,0,0,9.9h43.53A5,5,0,0,0,137.47,332.56Z" transform="translate(-39.55 -32.2)"/>
  <path class="cls-1" d="M205,316.7c-33.61-.91-70.49,24.7-82.34,57.2s5.78,59.58,39.39,60.49,70.49-24.7,82.33-57.2S238.59,317.61,205,316.7Zm-3.49,60.52c-4.08,11.21-16.78,20-28.38,19.71s-17.66-9.64-13.56-20.85,16.78-20,28.37-19.72S205.59,366,201.49,377.22Z" transform="translate(-39.55 -32.2)"/>
</svg>